ffmpeg version 4.3.5-0+deb11u1+rpt3 Copyright (c) 2000-2022 the FFmpeg developers
  built with gcc 10 (Debian 10.2.1-6)
  configuration: --prefix=/usr --extra-version=0+deb11u1+rpt3 --toolchain=hardened --incdir=/usr/include/aarch64-linux-gnu --enable-gpl --disable-stripping --enable-avresample --disable-filter=resample --enable-gnutls --enable-ladspa --enable-libaom --enable-libass --enable-libbluray --enable-libbs2b --enable-libcaca --enable-libcdio --enable-libcodec2 --enable-libdav1d --enable-libflite --enable-libfontconfig --enable-libfreetype --enable-libfribidi --enable-libgme --enable-libgsm --enable-libjack --enable-libmp3lame --enable-libmysofa --enable-libopenjpeg --enable-libopenmpt --enable-libopus --enable-libpulse --enable-librabbitmq --enable-librsvg --enable-librubberband --enable-libshine --enable-libsnappy --enable-libsoxr --enable-libspeex --enable-libsrt --enable-libssh --enable-libtheora --enable-libtwolame --enable-libvidstab --enable-libvorbis --enable-libvpx --enable-libwavpack --enable-libwebp --enable-libx265 --enable-libxml2 --enable-libxvid --enable-libzmq --enable-libzvbi --enable-lv2 --enable-omx --enable-openal --enable-opencl --enable-opengl --enable-sdl2 --disable-mmal --enable-neon --enable-v4l2-request --enable-libudev --enable-epoxy --enable-sand --libdir=/usr/lib/aarch64-linux-gnu --arch=arm64 --enable-pocketsphinx --enable-libdc1394 --enable-libdrm --enable-vout-drm --enable-libiec61883 --enable-chromaprint --enable-frei0r --enable-libx264 --enable-shared
  libavutil      56. 51.100 / 56. 51.100
  libavcodec     58. 91.100 / 58. 91.100
  libavformat    58. 45.100 / 58. 45.100
  libavdevice    58. 10.100 / 58. 10.100
  libavfilter     7. 85.100 /  7. 85.100
  libavresample   4.  0.  0 /  4.  0.  0
  libswscale      5.  7.100 /  5.  7.100
  libswresample   3.  7.100 /  3.  7.100
  libpostproc    55.  7.100 / 55.  7.100
Input #0, image2, from 'images/*.png':
  Duration: 00:00:19.96, start: 0.000000, bitrate: N/A
    Stream #0:0: Video: png, rgb24(pc), 800x600, 25 fps, 25 tbr, 25 tbn, 25 tbc
Stream mapping:
  Stream #0:0 -> #0:0 (png (native) -> h264 (libx264))
Press [q] to stop, [?] for help
[libx264 @ 0x55a6db8f80] using SAR=1/1
[libx264 @ 0x55a6db8f80] using cpu capabilities: ARMv8 NEON
[libx264 @ 0x55a6db8f80] profile High, level 2.1, 4:2:0, 8-bit
[libx264 @ 0x55a6db8f80] 264 - core 160 r3011 cde9a93 - H.264/MPEG-4 AVC codec - Copyleft 2003-2020 - http://www.videolan.org/x264.html - options: cabac=1 ref=3 deblock=1:0:0 analyse=0x3:0x113 me=hex subme=7 psy=1 psy_rd=1.00:0.00 mixed_ref=1 me_range=16 chroma_me=1 trellis=1 8x8dct=1 cqm=0 deadzone=21,11 fast_pskip=1 chroma_qp_offset=-2 threads=6 lookahead_threads=1 sliced_threads=0 nr=0 decimate=1 interlaced=0 bluray_compat=0 constrained_intra=0 bframes=3 b_pyramid=2 b_adapt=1 b_bias=0 direct=1 weightb=1 open_gop=0 weightp=2 keyint=250 keyint_min=2 scenecut=40 intra_refresh=0 rc_lookahead=40 rc=crf mbtree=1 crf=23.0 qcomp=0.60 qpmin=0 qpmax=69 qpstep=4 ip_ratio=1.40 aq=1:1.00
Output #0, mp4, to 'video/20230321.mp4':
  Metadata:
    encoder         : Lavf58.45.100
    Stream #0:0: Video: h264 (libx264) (avc1 / 0x31637661), yuv420p, 480x360 [SAR 1:1 DAR 4:3], q=-1--1, 2 fps, 16384 tbn, 2 tbc
    Metadata:
      encoder         : Lavc58.91.100 libx264
    Side data:
      cpb: bitrate max/min/avg: 0/0/0 buffer size: 0 vbv_delay: N/A
frame=   23 fps=0.0 q=0.0 size=       0kB time=00:00:00.00 bitrate=N/A speed=   0x    frame=   47 fps= 44 q=0.0 size=       0kB time=00:00:00.00 bitrate=N/A speed=   0x    frame=   65 fps= 41 q=20.0 size=       0kB time=00:00:06.00 bitrate=   0.1kbits/s speed=3.78x    frame=   81 fps= 39 q=20.0 size=       0kB time=00:00:14.00 bitrate=   0.0kbits/s speed=6.67x    frame=   97 fps= 37 q=20.0 size=       0kB time=00:00:22.00 bitrate=   0.0kbits/s speed=8.45x    frame=  111 fps= 35 q=20.0 size=       0kB time=00:00:29.00 bitrate=   0.0kbits/s speed=9.27x    frame=  127 fps= 35 q=20.0 size=     256kB time=00:00:37.00 bitrate=  56.7kbits/s speed=10.2x    frame=  142 fps= 34 q=20.0 size=     256kB time=00:00:44.50 bitrate=  47.1kbits/s speed=10.7x    frame=  159 fps= 34 q=20.0 size=     256kB time=00:00:53.00 bitrate=  39.6kbits/s speed=11.3x    frame=  175 fps= 34 q=20.0 size=     256kB time=00:01:01.00 bitrate=  34.4kbits/s speed=11.7x    frame=  191 fps= 33 q=20.0 size=     256kB time=00:01:09.00 bitrate=  30.4kbits/s speed=12.1x    frame=  207 fps= 33 q=20.0 size=     512kB time=00:01:17.00 bitrate=  54.5kbits/s speed=12.3x    frame=  223 fps= 33 q=20.0 size=     512kB time=00:01:25.00 bitrate=  49.3kbits/s speed=12.5x    frame=  239 fps= 33 q=20.0 size=     512kB time=00:01:33.00 bitrate=  45.1kbits/s speed=12.7x    frame=  254 fps= 33 q=20.0 size=     512kB time=00:01:40.50 bitrate=  41.7kbits/s speed=12.9x    frame=  268 fps= 32 q=20.0 size=     768kB time=00:01:47.50 bitrate=  58.5kbits/s speed=12.9x    frame=  283 fps= 32 q=20.0 size=     768kB time=00:01:55.00 bitrate=  54.7kbits/s speed=  13x    frame=  297 fps= 32 q=20.0 size=     768kB time=00:02:02.00 bitrate=  51.6kbits/s speed=13.1x    frame=  311 fps= 32 q=20.0 size=    1024kB time=00:02:09.00 bitrate=  65.0kbits/s speed=13.1x    frame=  325 fps= 31 q=20.0 size=    1024kB time=00:02:16.00 bitrate=  61.7kbits/s speed=13.1x    frame=  337 fps= 31 q=20.0 size=    1280kB time=00:02:22.00 bitrate=  73.8kbits/s speed=13.1x    frame=  351 fps= 31 q=20.0 size=    1280kB time=00:02:29.00 bitrate=  70.4kbits/s speed=13.1x    frame=  367 fps= 31 q=20.0 size=    1536kB time=00:02:37.00 bitrate=  80.1kbits/s speed=13.2x    frame=  382 fps= 31 q=20.0 size=    1536kB time=00:02:44.50 bitrate=  76.5kbits/s speed=13.3x    frame=  400 fps= 31 q=20.0 size=    1536kB time=00:02:53.50 bitrate=  72.5kbits/s speed=13.4x    frame=  418 fps= 31 q=20.0 size=    1536kB time=00:03:02.50 bitrate=  68.9kbits/s speed=13.6x    frame=  432 fps= 31 q=20.0 size=    1536kB time=00:03:09.50 bitrate=  66.4kbits/s speed=13.6x    frame=  446 fps= 31 q=20.0 size=    1792kB time=00:03:16.50 bitrate=  74.7kbits/s speed=13.6x    frame=  461 fps= 31 q=20.0 size=    1792kB time=00:03:24.00 bitrate=  72.0kbits/s speed=13.6x    frame=  474 fps= 31 q=20.0 size=    1792kB time=00:03:30.50 bitrate=  69.7kbits/s speed=13.6x    frame=  488 fps= 31 q=20.0 size=    1792kB time=00:03:37.50 bitrate=  67.5kbits/s speed=13.6x    frame=  499 fps= 29 q=-1.0 Lsize=    2312kB time=00:04:08.00 bitrate=  76.4kbits/s speed=14.3x    
video:2306kB audio:0kB subtitle:0kB other streams:0kB global headers:0kB muxing overhead: 0.276362%
[libx264 @ 0x55a6db8f80] frame I:10    Avg QP:10.47  size: 24938
[libx264 @ 0x55a6db8f80] frame P:155   Avg QP:12.71  size:  6673
[libx264 @ 0x55a6db8f80] frame B:334   Avg QP:15.14  size:  3223
[libx264 @ 0x55a6db8f80] consecutive B-frames: 10.2%  0.4%  3.6% 85.8%
[libx264 @ 0x55a6db8f80] mb I  I16..4: 19.3% 63.3% 17.4%
[libx264 @ 0x55a6db8f80] mb P  I16..4:  2.4% 10.6%  1.8%  P16..4: 37.4% 19.0% 14.6%  0.0%  0.0%    skip:14.2%
[libx264 @ 0x55a6db8f80] mb B  I16..4:  0.5%  4.3%  0.3%  B16..8: 32.5%  9.6%  2.3%  direct:13.1%  skip:37.5%  L0:43.2% L1:47.6% BI: 9.2%
[libx264 @ 0x55a6db8f80] 8x8 transform intra:74.3% inter:75.6%
[libx264 @ 0x55a6db8f80] coded y,uvDC,uvAC intra: 77.1% 76.0% 57.6% inter: 34.4% 41.2% 18.0%
[libx264 @ 0x55a6db8f80] i16 v,h,dc,p: 54%  5%  9% 33%
[libx264 @ 0x55a6db8f80] i8 v,h,dc,ddl,ddr,vr,hd,vl,hu: 15% 10% 32%  5%  9%  8%  7%  7%  7%
[libx264 @ 0x55a6db8f80] i4 v,h,dc,ddl,ddr,vr,hd,vl,hu: 19% 13% 24%  6% 11%  8%  8%  6%  5%
[libx264 @ 0x55a6db8f80] i8c dc,h,v,p: 63% 16% 15%  6%
[libx264 @ 0x55a6db8f80] Weighted P-Frames: Y:40.0% UV:28.4%
[libx264 @ 0x55a6db8f80] ref P L0: 58.6%  8.5% 18.5% 10.6%  3.8%
[libx264 @ 0x55a6db8f80] ref B L0: 76.9% 17.0%  6.1%
[libx264 @ 0x55a6db8f80] ref B L1: 91.0%  9.0%
[libx264 @ 0x55a6db8f80] kb/s:75.68
ffmpeg version 4.3.5-0+deb11u1+rpt3 Copyright (c) 2000-2022 the FFmpeg developers
  built with gcc 10 (Debian 10.2.1-6)
  configuration: --prefix=/usr --extra-version=0+deb11u1+rpt3 --toolchain=hardened --incdir=/usr/include/aarch64-linux-gnu --enable-gpl --disable-stripping --enable-avresample --disable-filter=resample --enable-gnutls --enable-ladspa --enable-libaom --enable-libass --enable-libbluray --enable-libbs2b --enable-libcaca --enable-libcdio --enable-libcodec2 --enable-libdav1d --enable-libflite --enable-libfontconfig --enable-libfreetype --enable-libfribidi --enable-libgme --enable-libgsm --enable-libjack --enable-libmp3lame --enable-libmysofa --enable-libopenjpeg --enable-libopenmpt --enable-libopus --enable-libpulse --enable-librabbitmq --enable-librsvg --enable-librubberband --enable-libshine --enable-libsnappy --enable-libsoxr --enable-libspeex --enable-libsrt --enable-libssh --enable-libtheora --enable-libtwolame --enable-libvidstab --enable-libvorbis --enable-libvpx --enable-libwavpack --enable-libwebp --enable-libx265 --enable-libxml2 --enable-libxvid --enable-libzmq --enable-libzvbi --enable-lv2 --enable-omx --enable-openal --enable-opencl --enable-opengl --enable-sdl2 --disable-mmal --enable-neon --enable-v4l2-request --enable-libudev --enable-epoxy --enable-sand --libdir=/usr/lib/aarch64-linux-gnu --arch=arm64 --enable-pocketsphinx --enable-libdc1394 --enable-libdrm --enable-vout-drm --enable-libiec61883 --enable-chromaprint --enable-frei0r --enable-libx264 --enable-shared
  libavutil      56. 51.100 / 56. 51.100
  libavcodec     58. 91.100 / 58. 91.100
  libavformat    58. 45.100 / 58. 45.100
  libavdevice    58. 10.100 / 58. 10.100
  libavfilter     7. 85.100 /  7. 85.100
  libavresample   4.  0.  0 /  4.  0.  0
  libswscale      5.  7.100 /  5.  7.100
  libswresample   3.  7.100 /  3.  7.100
  libpostproc    55.  7.100 / 55.  7.100
Input #0, mov,mp4,m4a,3gp,3g2,mj2, from 'video/yesterday.mp4':
  Metadata:
    major_brand     : isom
    minor_version   : 512
    compatible_brands: isomiso2avc1mp41
    encoder         : Lavf58.45.100
  Duration: 00:04:09.50, start: 0.000000, bitrate: 75 kb/s
    Stream #0:0(und): Video: h264 (High) (avc1 / 0x31637661), yuv420p, 480x360 [SAR 1:1 DAR 4:3], 75 kb/s, 2 fps, 2 tbr, 16384 tbn, 4 tbc (default)
    Metadata:
      handler_name    : VideoHandler
Stream mapping:
  Stream #0:0 -> #0:0 (h264 (native) -> vp9 (libvpx-vp9))
Press [q] to stop, [?] for help
[libvpx-vp9 @ 0x55799cf5a0] v1.9.0
[libvpx-vp9 @ 0x55799cf5a0] Neither bitrate nor constrained quality specified, using default CRF of 32
Output #0, webm, to 'video/yesterday.webm':
  Metadata:
    major_brand     : isom
    minor_version   : 512
    compatible_brands: isomiso2avc1mp41
    encoder         : Lavf58.45.100
    Stream #0:0(und): Video: vp9 (libvpx-vp9), yuv420p, 480x360 [SAR 1:1 DAR 4:3], q=-1--1, 2 fps, 1k tbn, 2 tbc (default)
    Metadata:
      handler_name    : VideoHandler
      encoder         : Lavc58.91.100 libvpx-vp9
    Side data:
      cpb: bitrate max/min/avg: 0/0/0 buffer size: 0 vbv_delay: N/A
frame=   30 fps=0.0 q=0.0 size=       1kB time=00:00:02.50 bitrate=   2.1kbits/s speed=4.22x    frame=   36 fps= 30 q=0.0 size=      11kB time=00:00:05.50 bitrate=  16.1kbits/s speed= 4.6x    frame=   41 fps= 23 q=0.0 size=      11kB time=00:00:08.00 bitrate=  11.1kbits/s speed=4.53x    frame=   45 fps= 20 q=0.0 size=      11kB time=00:00:10.00 bitrate=   8.9kbits/s speed=4.35x    frame=   49 fps= 17 q=0.0 size=      17kB time=00:00:12.00 bitrate=  11.9kbits/s speed=4.16x    frame=   53 fps= 15 q=0.0 size=      17kB time=00:00:14.00 bitrate=  10.2kbits/s speed=4.07x    frame=   56 fps= 14 q=0.0 size=      17kB time=00:00:15.50 bitrate=   9.2kbits/s speed= 3.9x    frame=   61 fps= 13 q=0.0 size=      27kB time=00:00:18.00 bitrate=  12.1kbits/s speed=3.94x    frame=   66 fps= 13 q=0.0 size=      27kB time=00:00:20.50 bitrate=  10.6kbits/s speed= 3.9x    frame=   71 fps= 12 q=0.0 size=      32kB time=00:00:23.00 bitrate=  11.3kbits/s speed=3.96x    frame=   75 fps= 12 q=0.0 size=      32kB time=00:00:25.00 bitrate=  10.4kbits/s speed=3.95x    frame=   79 fps= 11 q=0.0 size=      32kB time=00:00:27.00 bitrate=   9.6kbits/s speed=3.91x    frame=   83 fps= 11 q=0.0 size=      38kB time=00:00:29.00 bitrate=  10.9kbits/s speed=3.89x    frame=   86 fps= 11 q=0.0 size=      38kB time=00:00:30.50 bitrate=  10.3kbits/s speed=3.82x    frame=   91 fps= 11 q=0.0 size=      46kB time=00:00:33.00 bitrate=  11.4kbits/s speed=3.84x    frame=   95 fps= 10 q=0.0 size=      46kB time=00:00:35.00 bitrate=  10.8kbits/s speed=3.85x    frame=   99 fps= 10 q=0.0 size=      46kB time=00:00:37.00 bitrate=  10.2kbits/s speed=3.82x    frame=  104 fps= 10 q=0.0 size=      52kB time=00:00:39.50 bitrate=  10.8kbits/s speed=3.83x    frame=  108 fps=9.9 q=0.0 size=      52kB time=00:00:41.50 bitrate=  10.3kbits/s speed=3.81x    frame=  112 fps=9.8 q=0.0 size=      52kB time=00:00:43.50 bitrate=   9.8kbits/s speed=3.82x    frame=  116 fps=9.6 q=0.0 size=      58kB time=00:00:45.50 bitrate=  10.4kbits/s speed=3.78x    frame=  121 fps=9.6 q=0.0 size=      58kB time=00:00:48.00 bitrate=   9.9kbits/s speed= 3.8x    frame=  125 fps=9.5 q=0.0 size=      65kB time=00:00:50.00 bitrate=  10.7kbits/s speed=3.78x    frame=  129 fps=9.3 q=0.0 size=      65kB time=00:00:52.00 bitrate=  10.3kbits/s speed=3.76x    frame=  133 fps=9.2 q=0.0 size=      65kB time=00:00:54.00 bitrate=   9.9kbits/s speed=3.75x    frame=  136 fps=9.1 q=0.0 size=      71kB time=00:00:55.50 bitrate=  10.5kbits/s speed=3.72x    frame=  140 fps=9.1 q=0.0 size=      71kB time=00:00:57.50 bitrate=  10.2kbits/s speed=3.73x    frame=  144 fps=9.0 q=0.0 size=      71kB time=00:00:59.50 bitrate=   9.8kbits/s speed=3.74x    frame=  148 fps=9.0 q=0.0 size=      78kB time=00:01:01.50 bitrate=  10.4kbits/s speed=3.73x    frame=  152 fps=8.9 q=0.0 size=      78kB time=00:01:03.50 bitrate=  10.1kbits/s speed=3.74x    frame=  156 fps=8.9 q=0.0 size=      78kB time=00:01:05.50 bitrate=   9.8kbits/s speed=3.73x    frame=  161 fps=8.9 q=0.0 size=      93kB time=00:01:08.00 bitrate=  11.2kbits/s speed=3.76x    frame=  165 fps=8.9 q=0.0 size=      93kB time=00:01:10.00 bitrate=  10.8kbits/s speed=3.76x    frame=  169 fps=8.8 q=0.0 size=      99kB time=00:01:12.00 bitrate=  11.2kbits/s speed=3.76x    frame=  173 fps=8.8 q=0.0 size=      99kB time=00:01:14.00 bitrate=  10.9kbits/s speed=3.75x    frame=  177 fps=8.7 q=0.0 size=      99kB time=00:01:16.00 bitrate=  10.6kbits/s speed=3.73x    frame=  181 fps=8.6 q=0.0 size=     105kB time=00:01:18.00 bitrate=  11.1kbits/s speed=3.73x    frame=  184 fps=8.6 q=0.0 size=     105kB time=00:01:19.50 bitrate=  10.9kbits/s speed= 3.7x    frame=  188 fps=8.5 q=0.0 size=     105kB time=00:01:21.50 bitrate=  10.6kbits/s speed=3.71x    frame=  192 fps=8.5 q=0.0 size=     110kB time=00:01:23.50 bitrate=  10.8kbits/s speed=3.71x    frame=  196 fps=8.5 q=0.0 size=     110kB time=00:01:25.50 bitrate=  10.6kbits/s speed= 3.7x    frame=  200 fps=8.5 q=0.0 size=     110kB time=00:01:27.50 bitrate=  10.3kbits/s speed= 3.7x    frame=  204 fps=8.4 q=0.0 size=     115kB time=00:01:29.50 bitrate=  10.5kbits/s speed=3.68x    frame=  209 fps=8.4 q=0.0 size=     115kB time=00:01:32.00 bitrate=  10.2kbits/s speed=3.69x    frame=  213 fps=8.4 q=0.0 size=     121kB time=00:01:34.00 bitrate=  10.5kbits/s speed=3.69x    frame=  217 fps=8.3 q=0.0 size=     121kB time=00:01:36.00 bitrate=  10.3kbits/s speed=3.69x    frame=  221 fps=8.3 q=0.0 size=     121kB time=00:01:38.00 bitrate=  10.1kbits/s speed=3.68x    frame=  224 fps=8.2 q=0.0 size=     126kB time=00:01:39.50 bitrate=  10.4kbits/s speed=3.66x    frame=  228 fps=8.2 q=0.0 size=     126kB time=00:01:41.50 bitrate=  10.2kbits/s speed=3.67x    frame=  233 fps=8.2 q=0.0 size=     126kB time=00:01:44.00 bitrate=   9.9kbits/s speed=3.68x    frame=  236 fps=8.2 q=0.0 size=     133kB time=00:01:45.50 bitrate=  10.4kbits/s speed=3.67x    frame=  240 fps=8.2 q=0.0 size=     133kB time=00:01:47.50 bitrate=  10.2kbits/s speed=3.66x    frame=  244 fps=8.1 q=0.0 size=     133kB time=00:01:49.50 bitrate=  10.0kbits/s speed=3.64x    frame=  249 fps=8.1 q=0.0 size=     140kB time=00:01:52.00 bitrate=  10.2kbits/s speed=3.65x    frame=  253 fps=8.1 q=0.0 size=     140kB time=00:01:54.00 bitrate=  10.1kbits/s speed=3.65x    frame=  257 fps=8.1 q=0.0 size=     146kB time=00:01:56.00 bitrate=  10.3kbits/s speed=3.64x    frame=  261 fps=8.0 q=0.0 size=     146kB time=00:01:58.00 bitrate=  10.1kbits/s speed=3.64x    frame=  264 fps=8.0 q=0.0 size=     146kB time=00:01:59.50 bitrate=  10.0kbits/s speed=3.62x    frame=  268 fps=8.0 q=0.0 size=     152kB time=00:02:01.50 bitrate=  10.2kbits/s speed=3.63x    frame=  272 fps=8.0 q=0.0 size=     152kB time=00:02:03.50 bitrate=  10.1kbits/s speed=3.63x    frame=  276 fps=8.0 q=0.0 size=     152kB time=00:02:05.50 bitrate=   9.9kbits/s speed=3.62x    frame=  280 fps=8.0 q=0.0 size=     157kB time=00:02:07.50 bitrate=  10.1kbits/s speed=3.62x    frame=  283 fps=7.9 q=0.0 size=     157kB time=00:02:09.00 bitrate=  10.0kbits/s speed=3.61x    frame=  287 fps=7.9 q=0.0 size=     157kB time=00:02:11.00 bitrate=   9.8kbits/s speed=3.61x    frame=  291 fps=7.9 q=0.0 size=     179kB time=00:02:13.00 bitrate=  11.0kbits/s speed=3.61x    frame=  295 fps=7.9 q=0.0 size=     179kB time=00:02:15.00 bitrate=  10.9kbits/s speed= 3.6x    frame=  299 fps=7.9 q=0.0 size=     179kB time=00:02:17.00 bitrate=  10.7kbits/s speed= 3.6x    frame=  303 fps=7.9 q=0.0 size=     190kB time=00:02:19.00 bitrate=  11.2kbits/s speed=3.61x    frame=  308 fps=7.9 q=0.0 size=     190kB time=00:02:21.50 bitrate=  11.0kbits/s speed=3.62x    frame=  312 fps=7.9 q=0.0 size=     196kB time=00:02:23.50 bitrate=  11.2kbits/s speed=3.62x    frame=  318 fps=7.9 q=0.0 size=     196kB time=00:02:26.50 bitrate=  11.0kbits/s speed=3.65x    frame=  323 fps=7.9 q=0.0 size=     203kB time=00:02:29.00 bitrate=  11.1kbits/s speed=3.67x    frame=  330 fps=8.0 q=0.0 size=     203kB time=00:02:32.50 bitrate=  10.9kbits/s speed= 3.7x    frame=  337 fps=8.1 q=0.0 size=     206kB time=00:02:36.00 bitrate=  10.8kbits/s speed=3.74x    frame=  344 fps=8.1 q=0.0 size=     208kB time=00:02:39.50 bitrate=  10.7kbits/s speed=3.77x    frame=  353 fps=8.3 q=0.0 size=     208kB time=00:02:44.00 bitrate=  10.4kbits/s speed=3.83x    frame=  364 fps=8.4 q=0.0 size=     209kB time=00:02:49.50 bitrate=  10.1kbits/s speed=3.92x    frame=  374 fps=8.5 q=0.0 size=     210kB time=00:02:54.50 bitrate=   9.9kbits/s speed=3.98x    frame=  386 fps=8.7 q=0.0 size=     211kB time=00:03:00.50 bitrate=   9.6kbits/s speed=4.07x    frame=  394 fps=8.7 q=0.0 size=     212kB time=00:03:04.50 bitrate=   9.4kbits/s speed=4.09x    frame=  396 fps=8.7 q=0.0 size=     212kB time=00:03:05.50 bitrate=   9.3kbits/s speed=4.07x    frame=  402 fps=8.7 q=0.0 size=     230kB time=00:03:08.50 bitrate=  10.0kbits/s speed=4.07x    frame=  408 fps=8.7 q=0.0 size=     230kB time=00:03:11.50 bitrate=   9.8kbits/s speed=4.09x    frame=  413 fps=8.7 q=0.0 size=     235kB time=00:03:14.00 bitrate=   9.9kbits/s speed=4.09x    frame=  419 fps=8.7 q=0.0 size=     235kB time=00:03:17.00 bitrate=   9.8kbits/s speed=4.11x    frame=  424 fps=8.8 q=0.0 size=     237kB time=00:03:19.50 bitrate=   9.7kbits/s speed=4.12x    frame=  429 fps=8.8 q=0.0 size=     237kB time=00:03:22.00 bitrate=   9.6kbits/s speed=4.13x    frame=  434 fps=8.8 q=0.0 size=     238kB time=00:03:24.50 bitrate=   9.5kbits/s speed=4.13x    frame=  439 fps=8.8 q=0.0 size=     238kB time=00:03:27.00 bitrate=   9.4kbits/s speed=4.13x    frame=  443 fps=8.7 q=0.0 size=     239kB time=00:03:29.00 bitrate=   9.4kbits/s speed=4.13x    frame=  448 fps=8.8 q=0.0 size=     239kB time=00:03:31.50 bitrate=   9.3kbits/s speed=4.13x    frame=  452 fps=8.7 q=0.0 size=     239kB time=00:03:33.50 bitrate=   9.2kbits/s speed=4.13x    frame=  457 fps=8.7 q=0.0 size=     240kB time=00:03:36.00 bitrate=   9.1kbits/s speed=4.13x    frame=  460 fps=8.7 q=0.0 size=     240kB time=00:03:37.50 bitrate=   9.1kbits/s speed=4.12x    frame=  465 fps=8.7 q=0.0 size=     242kB time=00:03:40.00 bitrate=   9.0kbits/s speed=4.12x    frame=  470 fps=8.7 q=0.0 size=     242kB time=00:03:42.50 bitrate=   8.9kbits/s speed=4.11x    frame=  476 fps=8.7 q=0.0 size=     244kB time=00:03:45.50 bitrate=   8.9kbits/s speed=4.12x    frame=  481 fps=8.7 q=0.0 size=     244kB time=00:03:48.00 bitrate=   8.8kbits/s speed=4.11x    frame=  484 fps=8.7 q=0.0 size=     244kB time=00:03:49.50 bitrate=   8.7kbits/s speed= 4.1x    frame=  487 fps=8.6 q=0.0 size=     256kB time=00:03:51.00 bitrate=   9.1kbits/s speed=4.09x    frame=  490 fps=8.5 q=0.0 size=     256kB time=00:03:52.50 bitrate=   9.0kbits/s speed=4.06x    frame=  493 fps=8.5 q=0.0 size=     256kB time=00:03:54.00 bitrate=   9.0kbits/s speed=4.03x    frame=  497 fps=8.5 q=0.0 size=     256kB time=00:03:56.00 bitrate=   8.9kbits/s speed=4.03x    frame=  499 fps=8.4 q=0.0 size=     256kB time=00:03:57.00 bitrate=   8.8kbits/s speed=   4x    frame=  499 fps=7.9 q=0.0 Lsize=     307kB time=00:04:09.00 bitrate=  10.1kbits/s speed=3.95x    
video:302kB audio:0kB subtitle:0kB other streams:0kB global headers:0kB muxing overhead: 1.498454%
Connected to home349728106.1and1-data.host.
sftp> put video/yesterday.webm
Uploading video/yesterday.webm to /yesterday.webm
sftp> bye
